<?xml version="1.0" encoding="UTF-8" standalone="no"?>
<!-- Created with Inkscape (http://www.inkscape.org/) -->
<svg xmlns:inkscape="http://www.inkscape.org/namespaces/inkscape" xmlns:rdf="http://www.w3.org/1999/02/22-rdf-syntax-ns#" xmlns="http://www.w3.org/2000/svg" xmlns:cc="http://creativecommons.org/ns#" xmlns:dc="http://purl.org/dc/elements/1.1/" xmlns:sodipodi="http://sodipodi.sourceforge.net/DTD/sodipodi-0.dtd" xmlns:svg="http://www.w3.org/2000/svg" xmlns:ns1="http://sozi.baierouge.fr" xmlns:xlink="http://www.w3.org/1999/xlink" id="svg16720" sodipodi:docname="heart_7.svg" viewBox="0 0 90 135" sodipodi:version="0.32" version="1.0" inkscape:output_extension="org.inkscape.output.svg.inkscape" inkscape:version="0.46">
  <sodipodi:namedview id="base" bordercolor="#666666" inkscape:pageshadow="2" guidetolerance="10" pagecolor="#ffffff" gridtolerance="10000" inkscape:window-height="719" inkscape:zoom="1.4" objecttolerance="10" showgrid="false" borderopacity="1.0" inkscape:current-layer="layer1" inkscape:cx="1.1905278" inkscape:cy="112.32681" inkscape:window-y="47" inkscape:window-x="611" inkscape:window-width="641" inkscape:pageopacity="0.0" inkscape:document-units="px"/>
  <g id="layer1" inkscape:label="Layer 1" inkscape:groupmode="layer" transform="translate(-117.86 -330.58)">
    <g id="g14388" transform="translate(-367.24 42.714)">
      <g id="g4614" transform="translate(464.24 277.93)">
        <rect id="rect4616" style="fill:#000000" ry="14.04" height="135" width="90" y="9.9336" x="20.857"/>
        <rect id="rect4618" style="fill:#f2f2f2" ry="13" height="125" width="80" y="14.934" x="25.857"/>
      </g>
      <path id="text4684" style="fill:#800000" d="m547.78 358.31c-0.27 0.74-0.51 1.52-0.72 2.32-0.16 0.74-0.37 1.49-0.64 2.24h0.16c-4.53 1.86-8.99 3.78-13.36 5.76-4.37 1.92-8.56 4.26-12.56 7.04-1.39 0.05-2.75 0.1-4.08 0.16-1.33 0.05-2.69 0.1-4.08 0.16l0.16-0.16c2.56-2.03 5.25-3.87 8.08-5.52 2.88-1.66 5.81-3.18 8.8-4.56 2.99-1.44 6-2.78 9.04-4 3.04-1.23 6.08-2.4 9.12-3.52l0.08 0.08m-30.4 41.2c0.48-3.84 1.09-7.68 1.84-11.52 0.75-3.9 1.73-7.68 2.96-11.36 3.52-2.56 7.28-4.75 11.28-6.56 4.05-1.87 8.16-3.66 12.32-5.36v0.08c-1.87 5.97-3.81 11.94-5.84 17.92-2.03 5.92-4.24 11.7-6.64 17.36v0.08c-2.72-0.22-5.36-0.32-7.92-0.32s-5.2-0.11-7.92-0.32h-0.08m-8.96-55.04c7.15-0.11 14.35-0.27 21.6-0.48 7.31-0.22 14.61-0.32 21.92-0.32l0.08 0.08c-0.64 2.18-1.25 4.34-1.84 6.48-0.59 2.13-1.2 4.29-1.84 6.48h-0.24c-3.36 1.22-6.72 2.48-10.08 3.76-3.36 1.22-6.67 2.61-9.92 4.16-3.2 1.49-6.35 3.2-9.44 5.12-3.09 1.86-6.03 4-8.8 6.4h-0.4l-1.2 0.16c0.05-1.39 0.08-2.75 0.08-4.08v-4c0-3.52-0.03-6.99-0.08-10.4-0.05-3.47-0.08-6.96-0.08-10.48l0.08-2.56 0.16-0.32"/>
      <path id="text5329" style="fill:#aa0000" d="m537.18 297.24v3.87c-2.94 3.55-5.11 6.96-6.5 10.21-1.37 3.25-2.17 6.84-2.39 10.75h-4.92c0.33-2.63 0.74-4.86 1.23-6.69 0.49-1.82 1.17-3.64 2.02-5.44 0.48-1.09 1.32-2.54 2.51-4.36 1.2-1.81 2.19-3.13 2.95-3.94h-12.34v-4.4h17.44"/>
      <path id="path5452" sodipodi:nodetypes="ccccccc" style="fill:#d40000" d="m505.07 305.3c0.61-3.13 1.82-6.25 6.07-6.25 4.24 0 7.58 3.12 6.06 9.37s-8.49 9.38-12.13 15.63c-3.64-6.25-10.61-9.38-12.13-15.63-1.51-6.25 1.82-9.37 6.07-9.37 4.24 0 5.46 3.12 6.06 6.25z"/>
      <path id="path5656" sodipodi:nodetypes="ccccccc" style="fill:#d40000" d="m512.43 339.11c0.36-1.87 1.09-3.75 3.64-3.75 2.54 0 4.54 1.88 3.64 5.63-0.91 3.75-5.1 5.62-7.28 9.37-2.18-3.75-6.37-5.62-7.28-9.37s1.09-5.63 3.64-5.63 3.27 1.88 3.64 3.75z"/>
      <path id="path5658" sodipodi:nodetypes="ccccccc" style="fill:#d40000" d="m511.43 370.11c0.36-1.87 1.09-3.75 3.64-3.75 2.54 0 4.54 1.88 3.64 5.63-0.91 3.75-5.1 5.62-7.28 9.37-2.18-3.75-6.37-5.62-7.28-9.37s1.09-5.63 3.64-5.63 3.27 1.88 3.64 3.75z"/>
      <path id="path5660" sodipodi:nodetypes="ccccccc" style="fill:#d40000" d="m517.43 393.11c0.36-1.87 1.09-3.75 3.64-3.75 2.54 0 4.54 1.88 3.64 5.63-0.91 3.75-5.1 5.62-7.28 9.37-2.18-3.75-6.37-5.62-7.28-9.37s1.09-5.63 3.64-5.63 3.27 1.88 3.64 3.75z"/>
      <path id="path5662" sodipodi:nodetypes="ccccccc" style="fill:#d40000" d="m540.43 394.11c0.36-1.87 1.09-3.75 3.64-3.75 2.54 0 4.54 1.88 3.64 5.63-0.91 3.75-5.1 5.62-7.28 9.37-2.18-3.75-6.37-5.62-7.28-9.37s1.09-5.63 3.64-5.63 3.27 1.88 3.64 3.75z"/>
      <path id="path5664" sodipodi:nodetypes="ccccccc" style="fill:#d40000" d="m546.43 371.11c0.36-1.87 1.09-3.75 3.64-3.75 2.54 0 4.54 1.88 3.64 5.63-0.91 3.75-5.1 5.62-7.28 9.37-2.18-3.75-6.37-5.62-7.28-9.37s1.09-5.63 3.64-5.63 3.27 1.88 3.64 3.75z"/>
      <path id="path5666" sodipodi:nodetypes="ccccccc" style="fill:#d40000" d="m554.43 341.11c0.36-1.87 1.09-3.75 3.64-3.75 2.54 0 4.54 1.88 3.64 5.63-0.91 3.75-5.1 5.62-7.28 9.37-2.18-3.75-6.37-5.62-7.28-9.37s1.09-5.63 3.64-5.63 3.27 1.88 3.64 3.75z"/>
      <path id="path5668" sodipodi:nodetypes="ccccccc" style="fill:#d40000" d="m533.43 331.11c0.36-1.87 1.09-3.75 3.64-3.75 2.54 0 4.54 1.88 3.64 5.63-0.91 3.75-5.1 5.62-7.28 9.37-2.18-3.75-6.37-5.62-7.28-9.37s1.09-5.63 3.64-5.63 3.27 1.88 3.64 3.75z"/>
    </g>
  </g>
  <metadata>
    <rdf:RDF>
      <cc:Work>
        <dc:format>image/svg+xml</dc:format>
        <dc:type rdf:resource="http://purl.org/dc/dcmitype/StillImage"/>
        <cc:license rdf:resource="http://creativecommons.org/licenses/publicdomain/"/>
        <dc:publisher>
          <cc:Agent rdf:about="http://openclipart.org/">
            <dc:title>Openclipart</dc:title>
          </cc:Agent>
        </dc:publisher>
        <dc:title>Seven of Hearts</dc:title>
        <dc:date>2009-02-07T19:10:22</dc:date>
        <dc:description>Seven of hearts from a funky card deck</dc:description>
        <dc:source>https://openclipart.org/detail/21476/seven-of-hearts-by-momoko</dc:source>
        <dc:creator>
          <cc:Agent>
            <dc:title>momoko</dc:title>
          </cc:Agent>
        </dc:creator>
        <dc:subject>
          <rdf:Bag>
            <rdf:li>card</rdf:li>
            <rdf:li>hearts</rdf:li>
            <rdf:li>remix</rdf:li>
            <rdf:li>seven</rdf:li>
          </rdf:Bag>
        </dc:subject>
      </cc:Work>
      <cc:License rdf:about="http://creativecommons.org/licenses/publicdomain/">
        <cc:permits rdf:resource="http://creativecommons.org/ns#Reproduction"/>
        <cc:permits rdf:resource="http://creativecommons.org/ns#Distribution"/>
        <cc:permits rdf:resource="http://creativecommons.org/ns#DerivativeWorks"/>
      </cc:License>
    </rdf:RDF>
  </metadata>
</svg>