<?xml version="1.0" encoding="UTF-8" standalone="no"?>
<!-- Created with Inkscape (http://www.inkscape.org/) -->
<svg xmlns:inkscape="http://www.inkscape.org/namespaces/inkscape" xmlns:rdf="http://www.w3.org/1999/02/22-rdf-syntax-ns#" xmlns="http://www.w3.org/2000/svg" xmlns:cc="http://creativecommons.org/ns#" xmlns:dc="http://purl.org/dc/elements/1.1/" xmlns:sodipodi="http://sodipodi.sourceforge.net/DTD/sodipodi-0.dtd" xmlns:svg="http://www.w3.org/2000/svg" xmlns:ns1="http://sozi.baierouge.fr" xmlns:xlink="http://www.w3.org/1999/xlink" id="svg10595" sodipodi:docname="spade_3.svg" viewBox="0 0 90 135" sodipodi:version="0.32" version="1.0" inkscape:output_extension="org.inkscape.output.svg.inkscape" inkscape:version="0.46">
  <sodipodi:namedview id="base" bordercolor="#666666" inkscape:pageshadow="2" guidetolerance="10" pagecolor="#ffffff" gridtolerance="10000" inkscape:window-height="719" inkscape:zoom="1" objecttolerance="10" showgrid="false" borderopacity="1.0" inkscape:current-layer="layer1" inkscape:cx="126" inkscape:cy="58" inkscape:window-y="47" inkscape:window-x="307" inkscape:window-width="641" inkscape:pageopacity="0.0" inkscape:document-units="px"/>
  <g id="layer1" inkscape:label="Layer 1" inkscape:groupmode="layer" transform="translate(-100.57 -84.362)">
    <g id="g10692" transform="translate(-1.2198 77.464)">
      <g id="g4314" transform="translate(80.934 -3.0357)">
        <rect id="rect4316" style="fill:#000000" ry="14.04" height="135" width="90" y="9.9336" x="20.857"/>
        <rect id="rect4318" style="fill:#f2f2f2" ry="13" height="125" width="80" y="14.934" x="25.857"/>
      </g>
      <text id="text4396" style="font-size:80px;font-family:Airmole Stripe;fill:#333333;line-height:125%" sodipodi:linespacing="125%" y="119.18217" x="127.5912" xml:space="preserve">
        <tspan id="tspan4398" y="119.18217" x="127.5912" sodipodi:role="line">3</tspan>
      </text>
      <path id="path4901" sodipodi:nodetypes="ccsscssccc" style="fill:#000000" d="m114.33 39.362c4.51-1.001 4.99-3.641 5.33-8.496-0.78 1.297-2.21 2.254-4.53 2.246-3.82-0.013-6.38-2.235-5.47-7.031 0.92-4.836 7.79-6.711 10.92-11.719 3.12 5.008 10 6.883 10.92 11.719 0.91 4.796-1.55 7.018-5.47 7.031-2.33 0.008-3.75-0.949-4.53-2.246 0.34 4.855 0.82 7.495 5.33 8.496h-12.5z"/>
      <path id="path5035" sodipodi:nodetypes="ccsscssccc" style="fill:#000000" d="m123.68 75.362c2.7-0.601 2.99-2.185 3.2-5.097-0.47 0.778-1.33 1.352-2.72 1.347-2.29-0.008-3.83-1.341-3.28-4.219 0.55-2.901 4.67-4.026 6.55-7.031 1.87 3.005 6 4.13 6.55 7.031 0.54 2.878-0.93 4.211-3.28 4.219-1.4 0.005-2.25-0.569-2.72-1.347 0.2 2.912 0.49 4.496 3.2 5.097h-7.5z"/>
      <path id="path5037" sodipodi:nodetypes="ccsscssccc" style="fill:#000000" d="m160.68 101.36c2.7-0.6 2.99-2.183 3.2-5.095-0.47 0.778-1.33 1.352-2.72 1.347-2.29-0.008-3.83-1.341-3.28-4.219 0.55-2.901 4.67-4.026 6.55-7.031 1.87 3.005 6 4.13 6.55 7.031 0.54 2.878-0.93 4.211-3.28 4.219-1.4 0.005-2.25-0.569-2.72-1.347 0.2 2.912 0.49 4.495 3.2 5.095h-7.5z"/>
      <path id="path5039" sodipodi:nodetypes="ccsscssccc" style="fill:#000000" d="m130.68 124.36c2.7-0.6 2.99-2.18 3.2-5.1-0.47 0.78-1.33 1.36-2.72 1.35-2.29-0.01-3.83-1.34-3.28-4.22 0.55-2.9 4.67-4.02 6.55-7.03 1.87 3.01 6 4.13 6.55 7.03 0.54 2.88-0.93 4.21-3.28 4.22-1.4 0.01-2.25-0.57-2.72-1.35 0.2 2.92 0.49 4.5 3.2 5.1h-7.5z"/>
      <text id="text5209" style="font-size:35px;font-family:AlMothnna;fill:#000000;line-height:125%;font-weight:bold" sodipodi:linespacing="125%" y="38.035713" x="131.80188" xml:space="preserve">
        <tspan id="tspan5211" y="38.035713" x="131.80188" sodipodi:role="line">3</tspan>
      </text>
    </g>
  </g>
  <metadata>
    <rdf:RDF>
      <cc:Work>
        <dc:format>image/svg+xml</dc:format>
        <dc:type rdf:resource="http://purl.org/dc/dcmitype/StillImage"/>
        <cc:license rdf:resource="http://creativecommons.org/licenses/publicdomain/"/>
        <dc:publisher>
          <cc:Agent rdf:about="http://openclipart.org/">
            <dc:title>Openclipart</dc:title>
          </cc:Agent>
        </dc:publisher>
        <dc:title>Three of Spades</dc:title>
        <dc:date>2009-02-07T18:44:46</dc:date>
        <dc:description>Three of spades from a funky card deck</dc:description>
        <dc:source>https://openclipart.org/detail/21446/three-of-spades-by-momoko</dc:source>
        <dc:creator>
          <cc:Agent>
            <dc:title>momoko</dc:title>
          </cc:Agent>
        </dc:creator>
        <dc:subject>
          <rdf:Bag>
            <rdf:li>card</rdf:li>
            <rdf:li>remix</rdf:li>
            <rdf:li>spades</rdf:li>
            <rdf:li>three</rdf:li>
          </rdf:Bag>
        </dc:subject>
      </cc:Work>
      <cc:License rdf:about="http://creativecommons.org/licenses/publicdomain/">
        <cc:permits rdf:resource="http://creativecommons.org/ns#Reproduction"/>
        <cc:permits rdf:resource="http://creativecommons.org/ns#Distribution"/>
        <cc:permits rdf:resource="http://creativecommons.org/ns#DerivativeWorks"/>
      </cc:License>
    </rdf:RDF>
  </metadata>
</svg>